<svg height="24" viewBox="0 0 86 24" width="86" xmlns="http://www.w3.org/2000/svg"><path d="m43.23 5.837c.035.426-.037.846-.119 1.261-.476 2.398-1.394 4.631-2.524 6.786-.086.166-.21.316-.237.54.243.018.413-.078.59-.132 1.78-.551 3.559-1.113 5.37-1.563.183-.045.37-.074.557-.102.148-.023.296-.004.42.083.1.071.158.173.117.303-.039.126-.13.208-.26.19-1.23-.157-2.341.362-3.491.637-1.089.26-2.154.62-3.236.917-.275.075-.445.217-.59.459-1.236 2.045-2.671 3.936-4.373 5.617-.98.968-2.042 1.83-3.276 2.46-.909.465-1.855.77-2.894.696-.37-.026-.72-.113-1.049-.28-.794-.401-1.067-1.107-.76-1.941.134-.361.347-.673.591-.965.567-.679 1.249-1.227 1.973-1.722 1.817-1.238 3.794-2.166 5.82-2.994 1.12-.458 2.259-.862 3.407-1.241.21-.07.383-.156.504-.375 1.276-2.312 2.3-4.72 2.816-7.324.057-.286.096-.577.114-.868.012-.196.096-.467-.088-.574-.197-.115-.363.123-.513.241-.343.271-.672.561-.995.856-1.339 1.218-2.67 2.442-4.05 3.613-1.492 1.266-3.02 2.484-4.678 3.529-1.411.89-2.88 1.66-4.501 2.097-.852.23-1.715.342-2.593.154-1.117-.239-1.824-.925-2.16-2.005-.261-.84-.253-1.705-.146-2.563.223-1.78.75-3.477 1.475-5.114.147-.333.312-.66.556-.938.184-.208.406-.331.694-.288.246.036.439.22.478.448s-.042.424-.296.522c-.237.092-.327.28-.428.47-.75 1.417-1.252 2.92-1.555 4.492-.153.791-.236 1.587-.096 2.394.211 1.212.946 1.876 2.17 1.946.74.041 1.45-.105 2.15-.32 1.547-.473 2.955-1.233 4.304-2.111 1.949-1.27 3.735-2.748 5.483-4.275 1.033-.903 2.048-1.826 3.073-2.737.218-.194.442-.381.671-.561.148-.117.303-.23.468-.321.624-.349 1.049-.117 1.107.603zm-4.201 9.357c-1.07.338-2.116.735-3.15 1.165-1.968.818-3.885 1.73-5.646 2.944-.71.49-1.378 1.03-1.93 1.7-.243.293-.453.606-.564.978-.172.578-.007 1.036.506 1.35.357.217.75.307 1.165.325.793.034 1.527-.182 2.236-.507 1.126-.516 2.102-1.251 3.004-2.087 1.81-1.677 3.29-3.622 4.593-5.709.037-.06.085-.116.07-.21-.101-.038-.19.02-.284.05zm-25.78-14.691c.144.26.204.545.242.836.132 1.023.044 2.043-.047 3.061-.189 2.125-.58 4.223-.873 6.333-.137.983-.32 1.962-.312 2.96.001.143-.025.29.067.478.257-.117.41-.313.574-.493.53-.584.992-1.224 1.453-1.864 1.186-1.646 2.368-3.295 3.643-4.875 1.037-1.284 2.114-2.532 3.277-3.704.329-.332.669-.652 1.045-.931.2-.148.408-.286.645-.365.512-.172.903.05 1.018.579.063.288.06.58.037.873-.101 1.213-.398 2.388-.682 3.565-.661 2.739-1.419 5.452-2.014 8.206l-.082.352c-.053.235-.09.474-.044.725.045.248-.095.415-.307.45s-.433-.118-.485-.349c-.041-.19 0-.376.043-.562.487-2.075 1.036-4.132 1.573-6.195.449-1.722.922-3.44 1.225-5.197.08-.46.153-.922.129-1.393-.007-.14.048-.325-.113-.394-.144-.062-.273.069-.391.147-.379.253-.705.567-1.025.887-1.022 1.023-1.97 2.113-2.89 3.228-1.573 1.904-2.988 3.925-4.436 5.922-.36.496-.731.985-1.145 1.438-.207.227-.421.448-.688.605-.509.302-.961.117-1.102-.46-.09-.372-.09-.753-.067-1.134.048-.788.156-1.57.26-2.35.296-2.214.696-4.415.882-6.642.074-.874.126-1.75.038-2.626-.026-.266.02-.628-.266-.732-.252-.09-.464.188-.662.353-.338.28-.636.603-.915.94-3.958 4.767-7.084 10.025-9.31 15.813-.189.491-.345.993-.47 1.504-.04.166-.06.28.19.328.385.074.506.389.324.732-.131.248-.321.455-.558.605-.387.245-.79.1-.954-.333-.112-.298-.08-.606-.031-.91.107-.665.307-1.305.54-1.937.892-2.415 1.993-4.734 3.235-6.985 1.754-3.178 3.75-6.192 6.068-8.987.438-.529.887-1.048 1.422-1.483.25-.204.512-.387.828-.476.475-.133.873.026 1.111.457zm51.037 1.62 7.043 17.03h-1.933l-1.944-4.738h-8.015l-1.944 4.738h-1.945l7.043-17.03zm5.177 0 5.098 9.12h.119l5.098-9.12h2.075l-6.32 11.068v5.962h-1.825v-5.963l-6.308-11.067zm-25.288 11.953-1.603 5.077h-1.826l-1.023-3.12.66-.902.739-.251.477 1.47.588-1.813 1.988-.46zm3.745-11.953 4.612 14.227 4.494-14.227h1.932l-5.584 17.03h-1.814l-4.495-14.227-2.5 7.918-2.006.546 3.653-11.267h1.707zm-8.645 6.867 1.107 3.506-1.15 2.041-1.425-4.346 1.468-1.2zm24.17-4.314-3.284 8.028h6.556zm-26.339-2.553 1.725 5.462-1.463 1.266-2.206-6.728zm46.567 0v.141h-.645v1.826h-.14v-1.826h-.644v-.141h1.43zm.476 0 .87 1.152.869-1.152h.112v1.967h-.14v-1.7l-.841 1.123-.84-1.123v1.7h-.142v-1.968h.112z" fill="#181818" fill-rule="evenodd"/></svg>