<?xml version="1.0" encoding="UTF-8"?>
<svg id="Laag_1" data-name="Laag 1" xmlns="http://www.w3.org/2000/svg" viewBox="0 0 32 32">
  <defs>
    <style>
      .cls-1 {
        fill: #9d9d9d;
        fill-rule: evenodd;
        stroke-width: 0px;
      }
    </style>
  </defs>
  <path class="cls-1" d="m29.53,15.78l1.89,1.88c.78.78.78,2.05,0,2.83l-10.37,10.37c-.09.09-.21.16-.34.18l-4.71.94c-.22.04-.44-.03-.6-.18-.16-.16-.23-.38-.18-.6l.94-4.71c.02-.13.09-.25.18-.34l10.37-10.37c.78-.78,2.05-.78,2.83,0Zm-1.89.94l-10.23,10.23-.71,3.53,3.53-.71,10.23-10.23c.26-.26.26-.68,0-.94l-1.89-1.89c-.26-.26-.68-.26-.94,0ZM11.33,0c1.58,0,2.95,1.12,3.27,2.67h2.07c.37,0,.67.3.67.67v.67h2c1.84,0,3.33,1.49,3.33,3.33v8c0,.37-.3.67-.67.67-.37,0-.67-.3-.67-.67V7.33c0-1.1-.9-2-2-2h-2v.67c0,1.1-.9,2-2,2H7.33c-1.1,0-2-.9-2-2v-.67h-2c-1.1,0-2,.9-2,2v17.33c0,1.1.9,2,2,2h9.33c.37-.01.68.27.69.64.01.37-.27.68-.64.69-.02,0-.03,0-.05,0H3.33c-1.84,0-3.33-1.49-3.33-3.33V7.33c0-1.84,1.49-3.33,3.33-3.33h2v-.67c0-.37.3-.67.67-.67h2.07C8.39,1.12,9.75,0,11.33,0Zm6.67,18.67c.37-.01.68.27.69.64.01.37-.27.68-.64.69-.02,0-.03,0-.05,0H4.67c-.37-.01-.65-.32-.64-.69.01-.35.29-.63.64-.64h13.33Zm0-4c.37-.01.68.27.69.64.01.37-.27.68-.64.69-.02,0-.03,0-.05,0H4.67c-.37-.01-.65-.32-.64-.69.01-.35.29-.63.64-.64h13.33Zm0-4c.37-.01.68.27.69.64.01.37-.27.68-.64.69-.02,0-.03,0-.05,0H4.67c-.37-.01-.65-.32-.64-.69.01-.35.29-.63.64-.64h13.33ZM11.33,1.33c-1.1,0-2,.9-2,2,0,.37-.3.67-.67.67h-2v2c0,.37.3.67.67.67h8c.37,0,.67-.3.67-.67v-2h-2c-.37,0-.67-.3-.67-.67,0-1.1-.9-2-2-2Z"/>
</svg>